# xmcd
#
# Track frame offsets:
#	150
#	23431
#	47908
#	73115
#	86718
#	105457
#	135742
#	162934
#	181982
#	202073
#	225483
#	238976
#	260891
#	281590
#
# Disc length: 3973 seconds
#
# Revision: 1
# Processed by: cddbd v1.5.1PL0 Copyright (c) Steve Scherf et al.
# Submitted via: audiograbber 1.83.01
#
DISCID=ca0f830e
DTITLE=Bigger Than Dallas - Cupid is a Dirty Liar.
DYEAR=2004
DGENRE=Americana
TTITLE0=So They Headed West
TTITLE1=All Hail the Liar
TTITLE2=Austin
TTITLE3=Gone so Wrong
TTITLE4=For Death and Glory
TTITLE5=Business isn't so Good These Days
TTITLE6=Damn Emily
TTITLE7=Virginia
TTITLE8=Burn this Town
TTITLE9=North Maine Wind
TTITLE10=Autumn Getaway
TTITLE11=Whiskey and Cigarettes
TTITLE12=So They Headed West (Noel Remix)
TTITLE13=hidden track
EXTD=
EXTT0=
EXTT1=
EXTT2=
EXTT3=
EXTT4=
EXTT5=
EXTT6=
EXTT7=
EXTT8=
EXTT9=
EXTT10=
EXTT11=
EXTT12=
EXTT13=
PLAYORDER=
